HIERARCHY
ROOT Hips
{
	OFFSET 0.000000 0.000000 0.000000
	CHANNELS 6 Xposition Yposition Zposition Zrotation Yrotation Xrotation 
	JOINT LHipJoint
	{
		OFFSET 0.000000 0.000000 0.000000
		CHANNELS 3 Zrotation Yrotation Xrotation
		JOINT LeftUpLeg
		{
			OFFSET 1.363060 -1.794630 0.839290
			CHANNELS 3 Zrotation Yrotation Xrotation
			JOINT LeftLeg
			{
				OFFSET 2.448110 -6.726130 0.000000
				CHANNELS 3 Zrotation Yrotation Xrotation
				JOINT LeftFoot
				{
					OFFSET 2.562200 -7.039590 0.000000
					CHANNELS 3 Zrotation Yrotation Xrotation
					JOINT LeftToeBase
					{
						OFFSET 0.157640 -0.433110 2.322550
						CHANNELS 3 Zrotation Yrotation Xrotation
						End Site
						{
							OFFSET 0.000000 0.000000 0.000000
						}
					}
				}
			}
		}
	}
	JOINT RHipJoint
	{
		OFFSET 0.000000 0.000000 0.000000
		CHANNELS 3 Zrotation Yrotation Xrotation
		JOINT RightUpLeg
		{
			OFFSET -1.305520 -1.794630 0.839290
			CHANNELS 3 Zrotation Yrotation Xrotation
			JOINT RightLeg
			{
				OFFSET -2.542530 -6.985550 0.000000
				CHANNELS 3 Zrotation Yrotation Xrotation
				JOINT RightFoot
				{
					OFFSET -2.568260 -7.056230 0.000000
					CHANNELS 3 Zrotation Yrotation Xrotation
					JOINT RightToeBase
					{
						OFFSET -0.164730 -0.452590 2.363150
						CHANNELS 3 Zrotation Yrotation Xrotation
						End Site
						{
							OFFSET 0.000000 0.000000 0.000000
						}
					}
				}
			}
		}
	}
	JOINT LowerBack
	{
		OFFSET 0.000000 0.000000 0.000000
		CHANNELS 3 Zrotation Yrotation Xrotation
		JOINT Spine
		{
			OFFSET 0.028270 2.035590 -0.193380
			CHANNELS 3 Zrotation Yrotation Xrotation
			JOINT Spine1
			{
				OFFSET 0.056720 2.048850 -0.042750
				CHANNELS 3 Zrotation Yrotation Xrotation
				JOINT Neck
				{
					OFFSET 0.000000 0.000000 0.000000
					CHANNELS 3 Zrotation Yrotation Xrotation
					JOINT Neck1
					{
						OFFSET -0.054170 1.746240 0.172020
						CHANNELS 3 Zrotation Yrotation Xrotation
						JOINT Head
						{
							OFFSET 0.104070 1.761360 -0.123970
							CHANNELS 3 Zrotation Yrotation Xrotation
							End Site
							{
								OFFSET 0.000000 0.000000 0.000000
							}
						}
					}
				}
				JOINT LeftShoulder
				{
					OFFSET 0.000000 0.000000 0.000000
					CHANNELS 3 Zrotation Yrotation Xrotation
					JOINT LeftArm
					{
						OFFSET 3.362410 1.200890 -0.311210
						CHANNELS 3 Zrotation Yrotation Xrotation
						JOINT LeftForeArm
						{
							OFFSET 4.983000 -0.000000 -0.000000
							CHANNELS 3 Zrotation Yrotation Xrotation
							JOINT LeftHand
							{
								OFFSET 3.483560 -0.000000 -0.000000
								CHANNELS 3 Zrotation Yrotation Xrotation
								JOINT LeftFingerBase
								{
									OFFSET 0.000000 0.000000 0.000000
									CHANNELS 3 Zrotation Yrotation Xrotation
									JOINT LeftHandIndex1
									{
										OFFSET 0.715260 -0.000000 -0.000000
										CHANNELS 3 Zrotation Yrotation Xrotation
										End Site
										{
											OFFSET 0.000000 0.000000 0.000000
										}
									}
								}
								JOINT LThumb
								{
									OFFSET 0.000000 0.000000 0.000000
									CHANNELS 3 Zrotation Yrotation Xrotation
									End Site
									{
										OFFSET 0.000000 0.000000 0.000000
									}
								}
							}
						}
					}
				}
				JOINT RightShoulder
				{
					OFFSET 0.000000 0.000000 0.000000
					CHANNELS 3 Zrotation Yrotation Xrotation
					JOINT RightArm
					{
						OFFSET -3.136600 1.374050 -0.404650
						CHANNELS 3 Zrotation Yrotation Xrotation
						JOINT RightForeArm
						{
							OFFSET -5.241900 -0.000000 -0.000000
							CHANNELS 3 Zrotation Yrotation Xrotation
							JOINT RightHand
							{
								OFFSET -3.444170 -0.000000 -0.000000
								CHANNELS 3 Zrotation Yrotation Xrotation
								JOINT RightFingerBase
								{
									OFFSET 0.000000 0.000000 0.000000
									CHANNELS 3 Zrotation Yrotation Xrotation
									JOINT RightHandIndex1
									{
										OFFSET -0.622530 -0.000000 -0.000000
										CHANNELS 3 Zrotation Yrotation Xrotation
										End Site
										{
											OFFSET 0.000000 0.000000 0.000000
										}
									}
								}
								JOINT RThumb
								{
									OFFSET 0.000000 0.000000 0.000000
									CHANNELS 3 Zrotation Yrotation Xrotation
									End Site
									{
										OFFSET 0.000000 0.000000 0.000000
									}
								}
							}
						}
					}
				}
			}
		}
	}
}
MOTION
Frames: 4
Frame Time: 0.008333
-0.898114 16.729215 -23.375262 -3.958248 -8.417231 10.166399 7.275282 -1.928584 -3.631590 -7.724245 -23.612442 -32.801355 0.526822 15.688796 33.810671 -4.441893 20.396410 -8.479964 0.916900 6.101100 17.078100 -9.568802 -0.553774 -3.167745 37.052337 5.097367 -17.540606 -0.467112 -13.575539 35.877143 0.748719 -10.589810 -21.872626 -0.388300 -4.001500 11.080900 9.167702 0.289195 1.371033 1.271550 -0.164175 -4.600789 -5.847018 -0.170619 -1.615557 6.496650 6.085887 -14.561775 3.763111 6.481968 13.018627 -4.931500 4.369400 12.962200 15.388252 -10.332037 2.396326 -95.742747 8.010735 14.211522 20.388619 -30.298961 -4.382023 -0.730266 3.267172 15.863004 0.856234 16.926740 0.601300 -7.125000 0.000000 0.000000 -22.382900 42.794100 1.288600 -12.120495 12.063905 2.467831 90.235848 -2.987615 19.908243 -13.508504 24.769415 -2.366863 -0.263890 -2.375542 16.881652 -6.868638 -10.307549 1.016000 7.125000 0.000000 0.000000 16.539800 -37.491100 3.161900 
-0.904941 16.730893 -23.404024 -3.944301 -8.230889 10.081602 7.290794 -1.925727 -3.655807 -7.828969 -23.432229 -32.907269 0.527729 15.689729 33.812612 -4.482615 20.539100 -8.438514 0.878900 5.976600 16.716700 -9.558661 -0.551020 -3.175489 37.080491 5.027444 -17.592660 -0.469012 -13.581007 35.884921 0.775170 -10.685011 -21.871426 -0.404900 -4.085200 11.316400 9.214911 0.394300 1.468908 1.227997 0.003065 -4.578039 -6.052366 -0.090373 -1.478224 6.488575 5.905915 -14.791745 3.841759 6.226793 13.011258 -4.830600 4.250000 12.982500 15.354130 -10.303350 2.372279 -95.292875 7.690200 14.088720 20.274904 -30.033251 -4.288671 -0.616748 3.121926 16.173341 1.389251 15.783272 0.646500 -7.125000 0.000000 0.000000 -21.685100 41.878400 1.762100 -12.211663 12.036733 2.424687 90.290239 -2.736202 18.623771 -13.016808 24.324653 -2.283472 -0.342631 -2.315478 17.603446 -7.152780 -9.834445 0.989900 7.125000 0.000000 0.000000 16.258700 -37.086300 3.271700 
-0.916804 16.734587 -23.442746 -3.860037 -7.892851 10.022772 7.295018 -1.926389 -3.679415 -8.006178 -23.026549 -33.199577 0.516511 15.690878 33.807506 -4.420189 20.303968 -8.211148 0.882800 5.989500 16.754000 -9.566119 -0.544784 -3.162593 37.090930 5.050529 -17.719639 -0.471011 -13.598228 35.904406 0.848431 -10.972882 -21.912791 -0.413300 -4.126700 11.433300 9.144041 0.296369 1.473990 1.250351 -0.128453 -4.595242 -5.938558 -0.153937 -1.578060 6.452841 5.883298 -14.633553 3.808835 6.199277 13.048495 -4.872100 4.244400 12.978600 15.335630 -10.310725 2.386896 -95.306735 7.745213 13.665469 20.579421 -30.359097 -4.452460 -0.684046 3.246271 15.541183 1.266016 16.865459 0.681200 -7.125000 0.000000 0.000000 -22.066800 42.768400 1.283100 -12.162397 12.036906 2.439345 89.974131 -2.871222 18.656923 -13.008967 24.240289 -2.299978 -0.374039 -2.359442 17.539561 -7.482094 -10.237768 1.078900 7.125000 0.000000 0.000000 16.082500 -37.444800 3.087600 
-0.923519 16.735370 -23.473411 -3.766485 -7.648691 9.910648 7.296445 -1.914674 -3.702545 -8.285768 -22.659139 -33.319262 0.510210 15.680790 33.825898 -4.349080 20.030748 -7.995719 0.817100 5.768100 16.113200 -9.556997 -0.543638 -3.161024 37.036789 5.029352 -17.761387 -0.479508 -13.606621 35.933274 0.884248 -11.125452 -21.962274 -0.428900 -4.202700 11.647600 9.080877 0.286921 1.594328 1.238028 -0.118461 -4.585491 -5.946655 -0.148044 -1.567366 6.349997 5.821408 -14.623623 3.858474 6.134887 13.027122 -4.786900 4.201400 12.918600 15.299607 -10.303499 2.391439 -95.164555 7.604903 13.380867 20.703382 -30.429955 -4.504345 -0.611450 3.244834 15.590374 1.762574 16.821950 0.781100 -7.125000 0.000000 0.000000 -21.677700 42.752900 1.266800 -12.179063 12.016192 2.436204 89.806769 -2.771587 18.100783 -12.861878 24.058283 -2.277641 -0.404130 -2.335474 17.633075 -7.648818 -10.068241 1.076000 7.125000 0.000000 0.000000 15.936200 -37.303000 3.115000 
